<?xml version="1.0" encoding="UTF-8"?> <svg xmlns="http://www.w3.org/2000/svg" width="397" height="448" viewBox="0 0 397 448" fill="none"><path d="M196.083 32.5465L31.7858 95.9254C30.1334 96.5628 29.1002 98.2589 29.2449 100.024C44.2125 282.576 83.0543 350.48 197.267 414.749C198.613 415.507 200.331 415.409 201.587 414.51C326.537 325.082 365.266 255.823 367.464 98.3488C367.488 96.6634 366.448 95.1069 364.869 94.5171L198.923 32.5314C198.006 32.189 196.996 32.1944 196.083 32.5465Z" stroke="black" stroke-width="22"></path><path d="M196.251 11.548L13.7836 82.0341C12.1323 82.672 11.1001 84.3683 11.2442 86.1326C27.8163 289.027 70.8677 364.369 197.649 435.746C198.996 436.505 200.717 436.407 201.974 435.507C340.656 336.161 383.575 259.306 385.965 84.2936C385.988 82.6089 384.949 81.052 383.37 80.4617L199.093 11.5327C198.176 11.1896 197.164 11.195 196.251 11.548Z" stroke="#48CA5B" stroke-width="22"></path></svg> 