<?xml version="1.0" encoding="UTF-8"?> <svg xmlns="http://www.w3.org/2000/svg" width="1256" height="1049" viewBox="0 0 1256 1049" fill="none"><path d="M340.284 1048.82C271.842 1048.82 211.86 1035.37 160.337 1008.45C109.583 980.766 69.9792 943.086 41.5261 895.407C13.842 847.728 0 793.514 0 732.763C0 671.242 13.4575 617.027 40.3726 570.119C68.0567 522.44 105.738 485.145 153.416 458.229C201.863 431.313 256.846 417.856 318.367 417.856C378.349 417.856 431.796 430.93 478.704 457.076C525.613 483.221 562.525 520.133 589.441 567.812C616.356 615.491 629.813 671.627 629.813 736.223C629.813 742.376 629.428 749.297 628.66 756.987C628.66 764.676 628.275 771.982 627.506 778.903H114.197V683.162H551.375L494.853 713.153C495.621 677.78 488.317 646.635 472.937 619.72C457.556 592.804 436.41 571.658 409.494 556.277C383.349 540.896 352.972 533.207 318.367 533.207C282.994 533.207 251.849 540.896 224.933 556.277C198.788 571.658 178.025 593.189 162.644 620.873C148.033 647.789 140.727 679.702 140.727 716.614V739.684C140.727 776.596 149.187 809.279 166.105 837.732C183.022 866.184 206.862 888.101 237.622 903.481C268.381 918.862 303.757 926.552 343.744 926.552C378.349 926.552 409.494 921.169 437.178 910.403C464.862 899.636 489.471 882.718 511.002 859.648L588.287 948.468C560.603 980.766 525.613 1005.76 483.318 1023.45C441.792 1040.36 394.113 1048.82 340.284 1048.82Z" fill="black"></path><path d="M616.959 1040.75L888.032 687.776L885.725 765.061L627.341 424.777H787.678L968.778 667.013H907.642L1089.9 424.777H1245.62L984.927 765.061L986.08 687.776L1256 1040.75H1093.36L903.028 783.517L963.01 791.591L776.143 1040.75H616.959Z" fill="black"></path><path d="M277.141 118.071C183.558 169.701 149.356 217.94 118.262 335.857C182.382 229.778 227.282 190.021 329.52 168.197C212.12 227.39 167.465 275.664 114.771 398.082C169.587 346.428 201.116 328.542 243.969 325.488C314.024 319.207 351.626 312.424 399.356 285.733C375.819 290.394 364.786 290.466 352.217 282.274C450.269 257.604 494.86 234.824 518.079 145.726C508.498 151.848 501.891 153.982 488.399 156.098C520.625 96.1703 523.71 62.0274 512.843 0.535156C487.056 38.2148 462.624 54.1298 404.595 74.8591C356.189 88.1621 328.22 97.6835 277.141 118.071Z" fill="#48CA5B"></path></svg> 