<?xml version="1.0" encoding="UTF-8"?> <svg xmlns="http://www.w3.org/2000/svg" width="173" height="170" viewBox="0 0 173 170" fill="none"><path d="M69.2917 50.1585C29.3554 72.1916 14.7594 92.7778 1.49014 143.099C28.8534 97.8296 48.0146 80.8633 91.6447 71.5499C41.5441 96.8108 22.4875 117.412 0 169.654C23.3929 147.61 36.8483 139.978 55.1357 138.674C85.0317 135.994 101.078 133.099 121.447 121.709C111.403 123.698 106.695 123.729 101.331 120.233C143.175 109.704 162.204 99.9832 172.112 61.9605C168.024 64.573 165.204 65.4837 159.446 66.3865C173.199 40.8125 174.516 26.2419 169.878 0C158.873 16.0798 148.447 22.8716 123.683 31.7179C103.026 37.3949 91.09 41.4582 69.2917 50.1585Z" fill="#48CA5B"></path></svg> 